<?xml version="1.0" standalone="no"?>
<!DOCTYPE svg PUBLIC "-//W3C//DTD SVG 20010904//EN"
 "http://www.w3.org/TR/2001/REC-SVG-20010904/DTD/svg10.dtd">
<svg version="1.0" xmlns="http://www.w3.org/2000/svg"
 width="400.000000pt" height="400.000000pt" viewBox="0 0 400.000000 400.000000"
 preserveAspectRatio="xMidYMid meet">
<metadata>
Created by potrace 1.14, written by Peter Selinger 2001-2017
</metadata>
<g transform="translate(0.000000,400.000000) scale(0.100000,-0.100000)"
fill="#000000" stroke="none">
<path d="M1750 3903 c-41 -2 -168 -10 -283 -18 -135 -10 -353 -15 -627 -15
l-421 0 3 -127 3 -127 190 -33 c105 -17 191 -32 193 -32 1 -1 2 -712 2 -1581
0 -1227 -3 -1580 -12 -1580 -19 0 -361 -40 -386 -46 -22 -4 -23 -7 -20 -127
l3 -122 733 -3 732 -2 0 124 0 125 -32 6 c-39 6 -424 45 -450 45 -17 0 -18 35
-18 680 l0 680 323 0 322 -1 36 -27 c20 -15 59 -54 88 -87 117 -134 208 -297
446 -804 219 -468 281 -583 363 -674 61 -67 61 -67 452 -67 l351 0 -3 127 -3
126 -108 28 c-60 16 -122 38 -138 50 -69 49 -148 171 -359 554 -176 320 -251
446 -329 555 -81 113 -191 233 -254 275 -43 29 -48 35 -31 41 417 148 683 501
723 956 17 201 -11 409 -78 570 -99 236 -337 404 -680 478 -169 37 -516 62
-731 53z m267 -283 c210 -27 351 -86 459 -194 123 -124 172 -261 181 -506 9
-232 -18 -381 -98 -547 -81 -168 -201 -268 -389 -324 -67 -19 -105 -22 -358
-26 -156 -3 -321 -2 -368 2 l-84 7 0 784 c0 620 3 784 13 785 6 0 68 6 137 13
157 17 400 19 507 6z"/>
</g>
</svg>
